<mxfile host="app.diagrams.net" modified="2020-11-23T13:08:02.980Z" agent="5.0 (X11; Linux x86_64) AppleWebKit/537.36 (KHTML, like Gecko) Chrome/86.0.4240.198 Safari/537.36" etag="aXZtL4gewIwBSiXeBQwn" version="13.10.1" type="github">
  <diagram id="R2lEEEUBdFMjLlhIrx00" name="Page-1">
    <mxGraphModel dx="868" dy="521" grid="1" gridSize="10" guides="1" tooltips="1" connect="1" arrows="1" fold="1" page="1" pageScale="1" pageWidth="850" pageHeight="1100" math="0" shadow="0" extFonts="Permanent Marker^https://fonts.googleapis.com/css?family=Permanent+Marker">
      <root>
        <mxCell id="0" />
        <mxCell id="1" parent="0" />
        <mxCell id="A_UWlsfDjotmvh9hlLRp-79" style="edgeStyle=orthogonalEdgeStyle;rounded=0;orthogonalLoop=1;jettySize=auto;html=1;entryX=1.063;entryY=0.9;entryDx=0;entryDy=0;entryPerimeter=0;" edge="1" parent="1" source="A_UWlsfDjotmvh9hlLRp-77" target="A_UWlsfDjotmvh9hlLRp-45">
          <mxGeometry relative="1" as="geometry" />
        </mxCell>
        <mxCell id="A_UWlsfDjotmvh9hlLRp-77" value="" style="ellipse;whiteSpace=wrap;html=1;" vertex="1" parent="1">
          <mxGeometry x="785" y="170" width="60" height="50" as="geometry" />
        </mxCell>
        <mxCell id="A_UWlsfDjotmvh9hlLRp-78" style="edgeStyle=orthogonalEdgeStyle;rounded=0;orthogonalLoop=1;jettySize=auto;html=1;entryX=1;entryY=0.25;entryDx=0;entryDy=0;" edge="1" parent="1" target="A_UWlsfDjotmvh9hlLRp-45">
          <mxGeometry relative="1" as="geometry">
            <mxPoint x="795" y="95" as="sourcePoint" />
          </mxGeometry>
        </mxCell>
        <mxCell id="A_UWlsfDjotmvh9hlLRp-76" value="" style="ellipse;whiteSpace=wrap;html=1;" vertex="1" parent="1">
          <mxGeometry x="795" y="75" width="60" height="50" as="geometry" />
        </mxCell>
        <mxCell id="A_UWlsfDjotmvh9hlLRp-44" value="" style="ellipse;whiteSpace=wrap;html=1;" vertex="1" parent="1">
          <mxGeometry x="545" y="420" width="65" height="45" as="geometry" />
        </mxCell>
        <mxCell id="A_UWlsfDjotmvh9hlLRp-43" value="" style="ellipse;whiteSpace=wrap;html=1;" vertex="1" parent="1">
          <mxGeometry x="445" y="417.5" width="65" height="45" as="geometry" />
        </mxCell>
        <mxCell id="A_UWlsfDjotmvh9hlLRp-42" value="" style="ellipse;whiteSpace=wrap;html=1;" vertex="1" parent="1">
          <mxGeometry x="227.5" y="287.5" width="65" height="45" as="geometry" />
        </mxCell>
        <mxCell id="A_UWlsfDjotmvh9hlLRp-41" value="" style="ellipse;whiteSpace=wrap;html=1;" vertex="1" parent="1">
          <mxGeometry x="167.5" y="227.5" width="65" height="45" as="geometry" />
        </mxCell>
        <mxCell id="A_UWlsfDjotmvh9hlLRp-9" style="edgeStyle=orthogonalEdgeStyle;rounded=0;orthogonalLoop=1;jettySize=auto;html=1;exitX=1;exitY=0.5;exitDx=0;exitDy=0;entryX=0;entryY=0.5;entryDx=0;entryDy=0;" edge="1" parent="1" source="A_UWlsfDjotmvh9hlLRp-2" target="A_UWlsfDjotmvh9hlLRp-7">
          <mxGeometry relative="1" as="geometry" />
        </mxCell>
        <mxCell id="A_UWlsfDjotmvh9hlLRp-2" value="" style="rounded=0;whiteSpace=wrap;html=1;" vertex="1" parent="1">
          <mxGeometry x="270" y="150" width="110" height="60" as="geometry" />
        </mxCell>
        <mxCell id="A_UWlsfDjotmvh9hlLRp-3" value="Premier Liga&amp;nbsp;" style="text;html=1;strokeColor=none;fillColor=none;align=center;verticalAlign=middle;whiteSpace=wrap;rounded=0;" vertex="1" parent="1">
          <mxGeometry x="305" y="170" width="40" height="20" as="geometry" />
        </mxCell>
        <mxCell id="A_UWlsfDjotmvh9hlLRp-4" value="" style="rounded=0;whiteSpace=wrap;html=1;" vertex="1" parent="1">
          <mxGeometry x="705" y="290" width="115" height="60" as="geometry" />
        </mxCell>
        <mxCell id="A_UWlsfDjotmvh9hlLRp-5" value="Equipos de liga" style="text;html=1;strokeColor=none;fillColor=none;align=center;verticalAlign=middle;whiteSpace=wrap;rounded=0;" vertex="1" parent="1">
          <mxGeometry x="742.5" y="307.5" width="40" height="20" as="geometry" />
        </mxCell>
        <mxCell id="A_UWlsfDjotmvh9hlLRp-89" style="edgeStyle=orthogonalEdgeStyle;rounded=0;orthogonalLoop=1;jettySize=auto;html=1;exitX=1;exitY=0.5;exitDx=0;exitDy=0;entryX=0;entryY=0.5;entryDx=0;entryDy=0;" edge="1" parent="1" source="A_UWlsfDjotmvh9hlLRp-7" target="A_UWlsfDjotmvh9hlLRp-45">
          <mxGeometry relative="1" as="geometry" />
        </mxCell>
        <mxCell id="A_UWlsfDjotmvh9hlLRp-7" value="" style="rhombus;whiteSpace=wrap;html=1;" vertex="1" parent="1">
          <mxGeometry x="440" y="140" width="80" height="70" as="geometry" />
        </mxCell>
        <mxCell id="A_UWlsfDjotmvh9hlLRp-8" value="tiene" style="text;html=1;strokeColor=none;fillColor=none;align=center;verticalAlign=middle;whiteSpace=wrap;rounded=0;" vertex="1" parent="1">
          <mxGeometry x="460" y="165" width="40" height="20" as="geometry" />
        </mxCell>
        <mxCell id="A_UWlsfDjotmvh9hlLRp-11" value="1" style="text;html=1;strokeColor=none;fillColor=none;align=center;verticalAlign=middle;whiteSpace=wrap;rounded=0;" vertex="1" parent="1">
          <mxGeometry x="405" y="140" width="40" height="20" as="geometry" />
        </mxCell>
        <mxCell id="A_UWlsfDjotmvh9hlLRp-13" value="n" style="text;html=1;strokeColor=none;fillColor=none;align=center;verticalAlign=middle;whiteSpace=wrap;rounded=0;" vertex="1" parent="1">
          <mxGeometry x="510" y="140" width="40" height="20" as="geometry" />
        </mxCell>
        <mxCell id="A_UWlsfDjotmvh9hlLRp-84" style="edgeStyle=orthogonalEdgeStyle;rounded=0;orthogonalLoop=1;jettySize=auto;html=1;exitX=0.25;exitY=1;exitDx=0;exitDy=0;entryX=1;entryY=0;entryDx=0;entryDy=0;" edge="1" parent="1" source="A_UWlsfDjotmvh9hlLRp-15" target="A_UWlsfDjotmvh9hlLRp-43">
          <mxGeometry relative="1" as="geometry" />
        </mxCell>
        <mxCell id="A_UWlsfDjotmvh9hlLRp-85" style="edgeStyle=orthogonalEdgeStyle;rounded=0;orthogonalLoop=1;jettySize=auto;html=1;exitX=0.75;exitY=1;exitDx=0;exitDy=0;" edge="1" parent="1" source="A_UWlsfDjotmvh9hlLRp-15" target="A_UWlsfDjotmvh9hlLRp-44">
          <mxGeometry relative="1" as="geometry" />
        </mxCell>
        <mxCell id="A_UWlsfDjotmvh9hlLRp-15" value="" style="rounded=0;whiteSpace=wrap;html=1;" vertex="1" parent="1">
          <mxGeometry x="470" y="340" width="105" height="50" as="geometry" />
        </mxCell>
        <mxCell id="A_UWlsfDjotmvh9hlLRp-17" value="Jugadores" style="text;html=1;strokeColor=none;fillColor=none;align=center;verticalAlign=middle;whiteSpace=wrap;rounded=0;" vertex="1" parent="1">
          <mxGeometry x="510" y="355" width="40" height="20" as="geometry" />
        </mxCell>
        <mxCell id="A_UWlsfDjotmvh9hlLRp-18" style="edgeStyle=orthogonalEdgeStyle;rounded=0;orthogonalLoop=1;jettySize=auto;html=1;entryX=0.636;entryY=-0.067;entryDx=0;entryDy=0;entryPerimeter=0;" edge="1" parent="1" source="A_UWlsfDjotmvh9hlLRp-19" target="A_UWlsfDjotmvh9hlLRp-15">
          <mxGeometry relative="1" as="geometry">
            <mxPoint x="542.5" y="270" as="targetPoint" />
          </mxGeometry>
        </mxCell>
        <mxCell id="A_UWlsfDjotmvh9hlLRp-87" style="edgeStyle=orthogonalEdgeStyle;rounded=0;orthogonalLoop=1;jettySize=auto;html=1;exitX=1;exitY=0.5;exitDx=0;exitDy=0;" edge="1" parent="1" source="A_UWlsfDjotmvh9hlLRp-19" target="A_UWlsfDjotmvh9hlLRp-4">
          <mxGeometry relative="1" as="geometry" />
        </mxCell>
        <mxCell id="A_UWlsfDjotmvh9hlLRp-19" value="" style="rhombus;whiteSpace=wrap;html=1;" vertex="1" parent="1">
          <mxGeometry x="650" y="380" width="70" height="60" as="geometry" />
        </mxCell>
        <mxCell id="A_UWlsfDjotmvh9hlLRp-20" value="tiene" style="text;html=1;strokeColor=none;fillColor=none;align=center;verticalAlign=middle;whiteSpace=wrap;rounded=0;" vertex="1" parent="1">
          <mxGeometry x="665" y="400" width="40" height="20" as="geometry" />
        </mxCell>
        <mxCell id="A_UWlsfDjotmvh9hlLRp-21" value="1" style="text;html=1;strokeColor=none;fillColor=none;align=center;verticalAlign=middle;whiteSpace=wrap;rounded=0;" vertex="1" parent="1">
          <mxGeometry x="667.5" y="360" width="40" height="20" as="geometry" />
        </mxCell>
        <mxCell id="A_UWlsfDjotmvh9hlLRp-22" value="n" style="text;html=1;strokeColor=none;fillColor=none;align=center;verticalAlign=middle;whiteSpace=wrap;rounded=0;" vertex="1" parent="1">
          <mxGeometry x="625" y="417.5" width="40" height="20" as="geometry" />
        </mxCell>
        <mxCell id="A_UWlsfDjotmvh9hlLRp-33" style="edgeStyle=orthogonalEdgeStyle;rounded=0;orthogonalLoop=1;jettySize=auto;html=1;exitX=0.5;exitY=0;exitDx=0;exitDy=0;entryX=0;entryY=0.5;entryDx=0;entryDy=0;" edge="1" parent="1" source="A_UWlsfDjotmvh9hlLRp-27" target="A_UWlsfDjotmvh9hlLRp-2">
          <mxGeometry relative="1" as="geometry" />
        </mxCell>
        <mxCell id="A_UWlsfDjotmvh9hlLRp-27" value="Jornadas" style="text;html=1;strokeColor=none;fillColor=none;align=center;verticalAlign=middle;whiteSpace=wrap;rounded=0;" vertex="1" parent="1">
          <mxGeometry x="180" y="240" width="40" height="20" as="geometry" />
        </mxCell>
        <mxCell id="A_UWlsfDjotmvh9hlLRp-28" style="edgeStyle=orthogonalEdgeStyle;rounded=0;orthogonalLoop=1;jettySize=auto;html=1;exitX=0.5;exitY=1;exitDx=0;exitDy=0;entryX=0.75;entryY=1;entryDx=0;entryDy=0;" edge="1" parent="1" source="A_UWlsfDjotmvh9hlLRp-27" target="A_UWlsfDjotmvh9hlLRp-27">
          <mxGeometry relative="1" as="geometry" />
        </mxCell>
        <mxCell id="A_UWlsfDjotmvh9hlLRp-31" style="edgeStyle=orthogonalEdgeStyle;rounded=0;orthogonalLoop=1;jettySize=auto;html=1;entryX=0.2;entryY=1.05;entryDx=0;entryDy=0;entryPerimeter=0;" edge="1" parent="1" target="A_UWlsfDjotmvh9hlLRp-2">
          <mxGeometry relative="1" as="geometry">
            <mxPoint x="270" y="290" as="sourcePoint" />
          </mxGeometry>
        </mxCell>
        <mxCell id="A_UWlsfDjotmvh9hlLRp-30" value="Fechas&amp;nbsp;" style="text;html=1;strokeColor=none;fillColor=none;align=center;verticalAlign=middle;whiteSpace=wrap;rounded=0;" vertex="1" parent="1">
          <mxGeometry x="240" y="300" width="40" height="20" as="geometry" />
        </mxCell>
        <mxCell id="A_UWlsfDjotmvh9hlLRp-34" value="Años" style="text;html=1;strokeColor=none;fillColor=none;align=center;verticalAlign=middle;whiteSpace=wrap;rounded=0;" vertex="1" parent="1">
          <mxGeometry x="457.5" y="430" width="40" height="20" as="geometry" />
        </mxCell>
        <mxCell id="A_UWlsfDjotmvh9hlLRp-35" value="nombre" style="text;html=1;strokeColor=none;fillColor=none;align=center;verticalAlign=middle;whiteSpace=wrap;rounded=0;" vertex="1" parent="1">
          <mxGeometry x="557.5" y="432.5" width="40" height="20" as="geometry" />
        </mxCell>
        <mxCell id="A_UWlsfDjotmvh9hlLRp-60" style="edgeStyle=orthogonalEdgeStyle;rounded=0;orthogonalLoop=1;jettySize=auto;html=1;exitX=0.5;exitY=1;exitDx=0;exitDy=0;entryX=0.5;entryY=0;entryDx=0;entryDy=0;" edge="1" parent="1" source="A_UWlsfDjotmvh9hlLRp-45" target="A_UWlsfDjotmvh9hlLRp-52">
          <mxGeometry relative="1" as="geometry" />
        </mxCell>
        <mxCell id="A_UWlsfDjotmvh9hlLRp-74" style="edgeStyle=orthogonalEdgeStyle;rounded=0;orthogonalLoop=1;jettySize=auto;html=1;exitX=0.25;exitY=0;exitDx=0;exitDy=0;entryX=0.685;entryY=0.978;entryDx=0;entryDy=0;entryPerimeter=0;" edge="1" parent="1" source="A_UWlsfDjotmvh9hlLRp-45" target="A_UWlsfDjotmvh9hlLRp-69">
          <mxGeometry relative="1" as="geometry" />
        </mxCell>
        <mxCell id="A_UWlsfDjotmvh9hlLRp-75" style="edgeStyle=orthogonalEdgeStyle;rounded=0;orthogonalLoop=1;jettySize=auto;html=1;exitX=0.5;exitY=0;exitDx=0;exitDy=0;entryX=0.5;entryY=1;entryDx=0;entryDy=0;" edge="1" parent="1" source="A_UWlsfDjotmvh9hlLRp-45" target="A_UWlsfDjotmvh9hlLRp-68">
          <mxGeometry relative="1" as="geometry" />
        </mxCell>
        <mxCell id="A_UWlsfDjotmvh9hlLRp-45" value="" style="rounded=0;whiteSpace=wrap;html=1;" vertex="1" parent="1">
          <mxGeometry x="665" y="140" width="80" height="60" as="geometry" />
        </mxCell>
        <mxCell id="A_UWlsfDjotmvh9hlLRp-46" value="partidos" style="text;html=1;strokeColor=none;fillColor=none;align=center;verticalAlign=middle;whiteSpace=wrap;rounded=0;" vertex="1" parent="1">
          <mxGeometry x="687.5" y="160" width="40" height="20" as="geometry" />
        </mxCell>
        <mxCell id="A_UWlsfDjotmvh9hlLRp-90" style="edgeStyle=orthogonalEdgeStyle;rounded=0;orthogonalLoop=1;jettySize=auto;html=1;exitX=0.5;exitY=1;exitDx=0;exitDy=0;entryX=0.122;entryY=0;entryDx=0;entryDy=0;entryPerimeter=0;" edge="1" parent="1" source="A_UWlsfDjotmvh9hlLRp-52" target="A_UWlsfDjotmvh9hlLRp-4">
          <mxGeometry relative="1" as="geometry" />
        </mxCell>
        <mxCell id="A_UWlsfDjotmvh9hlLRp-52" value="" style="rhombus;whiteSpace=wrap;html=1;" vertex="1" parent="1">
          <mxGeometry x="672.5" y="220" width="70" height="60" as="geometry" />
        </mxCell>
        <mxCell id="A_UWlsfDjotmvh9hlLRp-53" value="juegan" style="text;html=1;strokeColor=none;fillColor=none;align=center;verticalAlign=middle;whiteSpace=wrap;rounded=0;" vertex="1" parent="1">
          <mxGeometry x="690" y="240" width="40" height="20" as="geometry" />
        </mxCell>
        <mxCell id="A_UWlsfDjotmvh9hlLRp-54" value="n" style="text;html=1;strokeColor=none;fillColor=none;align=center;verticalAlign=middle;whiteSpace=wrap;rounded=0;" vertex="1" parent="1">
          <mxGeometry x="637.5" y="220" width="40" height="20" as="geometry" />
        </mxCell>
        <mxCell id="A_UWlsfDjotmvh9hlLRp-55" value="n" style="text;html=1;strokeColor=none;fillColor=none;align=center;verticalAlign=middle;whiteSpace=wrap;rounded=0;" vertex="1" parent="1">
          <mxGeometry x="665" y="287.5" width="40" height="20" as="geometry" />
        </mxCell>
        <mxCell id="A_UWlsfDjotmvh9hlLRp-68" value="" style="ellipse;whiteSpace=wrap;html=1;" vertex="1" parent="1">
          <mxGeometry x="702.5" y="50" width="65" height="45" as="geometry" />
        </mxCell>
        <mxCell id="A_UWlsfDjotmvh9hlLRp-69" value="" style="ellipse;whiteSpace=wrap;html=1;" vertex="1" parent="1">
          <mxGeometry x="602.5" y="50" width="65" height="45" as="geometry" />
        </mxCell>
        <mxCell id="A_UWlsfDjotmvh9hlLRp-70" value="Goles" style="text;html=1;strokeColor=none;fillColor=none;align=center;verticalAlign=middle;whiteSpace=wrap;rounded=0;" vertex="1" parent="1">
          <mxGeometry x="615" y="60" width="40" height="22.5" as="geometry" />
        </mxCell>
        <mxCell id="A_UWlsfDjotmvh9hlLRp-71" value="corners" style="text;html=1;strokeColor=none;fillColor=none;align=center;verticalAlign=middle;whiteSpace=wrap;rounded=0;" vertex="1" parent="1">
          <mxGeometry x="712.5" y="62.5" width="40" height="20" as="geometry" />
        </mxCell>
        <mxCell id="A_UWlsfDjotmvh9hlLRp-72" value="Tiros de campo" style="text;html=1;strokeColor=none;fillColor=none;align=center;verticalAlign=middle;whiteSpace=wrap;rounded=0;" vertex="1" parent="1">
          <mxGeometry x="805" y="90" width="40" height="20" as="geometry" />
        </mxCell>
        <mxCell id="A_UWlsfDjotmvh9hlLRp-73" value="Tiros de Ataque" style="text;html=1;strokeColor=none;fillColor=none;align=center;verticalAlign=middle;whiteSpace=wrap;rounded=0;" vertex="1" parent="1">
          <mxGeometry x="793.75" y="185" width="40" height="20" as="geometry" />
        </mxCell>
      </root>
    </mxGraphModel>
  </diagram>
</mxfile>
